<svg xmlns="http://www.w3.org/2000/svg" viewBox="0 0 24 24" id="Tools-Wrench-Screwdriver--Streamline-Ultimate.svg" height="120" width="120"><desc>Tools Wrench Screwdriver Streamline Icon: https://streamlinehq.com</desc><g><g><path d="M3.06 23.06a1.5 1.5 0 0 1 -2.12 -2.12l6.57 -6.57 2.12 2.12Z" fill="none" stroke="#000000" stroke-linecap="round" stroke-linejoin="round" stroke-width="1"></path><path d="m6.45 13.31 4.24 4.24" fill="none" stroke="#000000" stroke-linecap="round" stroke-linejoin="round" stroke-width="1"></path><path d="m18.51 5.51 -9.94 9.92" fill="none" stroke="#000000" stroke-linecap="round" stroke-linejoin="round" stroke-width="1"></path><path d="M20.71 6.1a1 1 0 0 1 -0.73 0.39 1 1 0 0 1 -0.78 -0.29l-1.41 -1.41A1 1 0 0 1 17.5 4a1 1 0 0 1 0.43 -0.73L21.82 0.59a0.5 0.5 0 0 1 0.64 0.06l0.89 0.89a0.5 0.5 0 0 1 0 0.66Z" fill="none" stroke="#000000" stroke-linecap="round" stroke-linejoin="round" stroke-width="1"></path></g><path d="M13 11 8.15 6.15A4.13 4.13 0 0 0 8.5 4.5a4 4 0 0 0 -4 -4 4.38 4.38 0 0 0 -0.82 0.08 0.5 0.5 0 0 0 -0.38 0.35 0.51 0.51 0 0 0 0.13 0.5l1.42 1.42a0.49 0.49 0 0 1 0.15 0.36V4.5a0.5 0.5 0 0 1 -0.5 0.5H3.21a0.49 0.49 0 0 1 -0.36 -0.15L1.43 3.43a0.51 0.51 0 0 0 -0.5 -0.13 0.52 0.52 0 0 0 -0.35 0.38 4.38 4.38 0 0 0 -0.08 0.82 4 4 0 0 0 4 4 4.13 4.13 0 0 0 1.65 -0.35L11 13" fill="none" stroke="#000000" stroke-linecap="round" stroke-linejoin="round" stroke-width="1"></path><path d="m14.56 12.56 3.29 3.29a4.13 4.13 0 0 1 1.65 -0.35 4 4 0 0 1 4 4 4.38 4.38 0 0 1 -0.08 0.82 0.5 0.5 0 0 1 -0.35 0.38 0.51 0.51 0 0 1 -0.5 -0.13l-1.42 -1.42a0.49 0.49 0 0 0 -0.36 -0.15H19.5a0.5 0.5 0 0 0 -0.5 0.5v1.29a0.49 0.49 0 0 0 0.15 0.36l1.42 1.42a0.51 0.51 0 0 1 0.13 0.5 0.52 0.52 0 0 1 -0.38 0.35 4.38 4.38 0 0 1 -0.82 0.08 4 4 0 0 1 -4 -4 4.13 4.13 0 0 1 0.35 -1.65l-3.3 -3.3" fill="none" stroke="#000000" stroke-linecap="round" stroke-linejoin="round" stroke-width="1"></path></g></svg>